<svg id="Capa_1" enable-background="new 0 0 512 512" height="512" viewBox="0 0 512 512" width="512" xmlns="http://www.w3.org/2000/svg"><g><path d="m394.711 187.753h-277.45v-111.712c0-27.079 21.952-49.03 49.03-49.03h179.389c27.079 0 49.03 21.952 49.03 49.03v111.712z" fill="#365e7d"/><path d="m366.988 31.871c-6.443-3.114-13.671-4.861-21.307-4.861h-179.39c-14.681 0-27.845 6.461-36.831 16.685 5.258-2.437 11.107-3.807 17.273-3.807h174.911c22.73 0 41.222 18.492 41.222 41.222v105.832c0 .274.024.541.041.811h25.673c.017-.27.041-.537.041-.811v-105.832c0-19.455-8.344-36.992-21.633-49.239z" fill="#2b4d66"/><path d="m410.432 81.11c0-36.932-30.046-66.977-66.977-66.977-37.607 0-137.524 0-174.911 0-36.931 0-66.977 30.045-66.977 66.977v105.832c0 7.112 5.766 12.877 12.877 12.877 7.112 0 12.877-5.766 12.877-12.877v-105.832c0-22.73 18.492-41.222 41.222-41.222h174.911c22.73 0 41.222 18.492 41.222 41.222v105.832c0 7.112 5.766 12.877 12.877 12.877s12.877-5.766 12.877-12.877v-105.832z" fill="#98b9d3"/><path d="m411.238 512h-310.504c-5.31 0-9.614-4.304-9.614-9.614v-103.698c0-71.089 57.629-128.717 128.717-128.717h72.298c71.089 0 128.717 57.629 128.717 128.717v103.698c0 5.31-4.304 9.614-9.614 9.614z" fill="#f6e781"/><path d="m292.135 269.971h-32.501c71.089 0 128.717 57.629 128.717 128.717v103.698c0 5.31-4.304 9.614-9.614 9.614h32.501c5.31 0 9.614-4.304 9.614-9.614v-103.698c0-71.089-57.628-128.717-128.717-128.717z" fill="#ffd064"/><path d="m288.456 337.729 24.53-59.473h-113.998l24.53 59.473c11.95 28.975 52.988 28.975 64.938 0z" fill="#d5985c"/><path d="m361.117 244.325c0 14.841-9.523 28.007-23.618 32.654l-70.749 23.321c-6.991 2.304-14.537 2.304-21.528 0l-70.749-23.321c-14.095-4.646-23.618-17.812-23.618-32.654v-120.01c0-.54.274-1.044.729-1.336.454-.293 1.026-.334 1.518-.11 55.74 25.273 103.074 23.624 143.394-.49.541-.324 1.224-.297 1.738.069 18.235 12.964 38.759 11.037 60.604.517.492-.237 1.072-.205 1.535.086s.745.799.745 1.345z" fill="#f1b986"/><g><path d="m333.123 131.077v105.255c0 14.841-9.523 28.008-23.618 32.654l-70.749 23.321c-4.143 1.365-8.479 1.901-12.781 1.648l19.247 6.345c6.991 2.305 14.537 2.305 21.528 0l70.749-23.321c14.095-4.646 23.618-17.812 23.618-32.654v-119.929c0-.547-.281-1.055-.743-1.346-.463-.291-1.043-.325-1.535-.087-8.808 4.241-17.4 7.079-25.716 8.114z" fill="#e2a770"/></g><g><g><path d="m214.579 213.511c-4.267 0-7.726-3.459-7.726-7.726v-11.069c0-4.268 3.459-7.726 7.726-7.726s7.726 3.459 7.726 7.726v11.069c0 4.268-3.459 7.726-7.726 7.726z" fill="#2b4d66"/></g><g><path d="m297.393 213.511c-4.268 0-7.726-3.459-7.726-7.726v-11.069c0-4.268 3.459-7.726 7.726-7.726s7.726 3.459 7.726 7.726v11.069c0 4.268-3.458 7.726-7.726 7.726z" fill="#2b4d66"/></g></g><g><path d="m255.986 261.508c-8.282 0-16.563-1.725-24.787-5.176-3.935-1.651-5.786-6.179-4.135-10.115 1.651-3.934 6.181-5.784 10.114-4.135 12.656 5.312 24.959 5.312 37.615 0 3.935-1.65 8.464.2 10.115 4.135 1.651 3.936-.2 8.464-4.135 10.115-8.224 3.451-16.506 5.176-24.787 5.176z" fill="#da387d"/></g><path d="m310.538 54.021h-109.104c-7.708 0-13.957-6.249-13.957-13.957v-26.107c0-7.708 6.249-13.957 13.957-13.957h109.104c7.708 0 13.957 6.249 13.957 13.957v26.107c0 7.708-6.248 13.957-13.957 13.957z" fill="#80b4fb"/><path d="m310.538 0h-21.797c7.708 0 13.957 6.249 13.957 13.957v26.106c0 7.708-6.249 13.957-13.957 13.957h21.797c7.708 0 13.957-6.249 13.957-13.957v-26.106c0-7.708-6.248-13.957-13.957-13.957z" fill="#61a2f9"/><path d="m150.855 245.335h-36.906c-13.356 0-24.182-10.827-24.182-24.183v-40.933c0-13.356 10.827-24.182 24.182-24.182h36.906z" fill="#80b4fb"/><path d="m132.112 156.037h18.743v89.298h-18.743z" fill="#61a2f9"/><path d="m361.145 245.335h36.906c13.356 0 24.183-10.827 24.183-24.183v-40.933c0-13.356-10.827-24.182-24.183-24.182h-36.906z" fill="#80b4fb"/><path d="m398.051 156.037h-20.902c13.356 0 24.183 10.827 24.183 24.183v40.933c0 13.356-10.827 24.182-24.183 24.182h20.902c13.356 0 24.183-10.827 24.183-24.182v-40.933c-.001-13.356-10.828-24.183-24.183-24.183z" fill="#61a2f9"/><path d="m89.767 223.248h-11.285c-6.912 0-12.515-5.603-12.515-12.515v-20.095c0-6.912 5.603-12.515 12.515-12.515h11.284v45.125z" fill="#365e7d"/><path d="m422.233 223.248h11.284c6.912 0 12.515-5.603 12.515-12.515v-20.095c0-6.912-5.603-12.515-12.515-12.515h-11.284z" fill="#365e7d"/><path d="m298.598 411.456c0-9.454-7.691-17.145-17.145-17.145h-26.739c-9.453 0-17.144 7.691-17.144 17.145v30.141c-1.409-.319-2.868-.502-4.372-.502-10.931 0-19.824 8.893-19.824 19.824 0 10.932 8.893 19.825 19.824 19.825 11.121 0 19.824-9.137 19.824-19.825v-49.463c0-.933.759-1.692 1.692-1.692h26.739c.933 0 1.692.76 1.692 1.692v21.413c-1.409-.319-2.868-.502-4.371-.502-10.932 0-19.825 8.893-19.825 19.825 0 10.931 8.893 19.824 19.825 19.824 11.101 0 19.824-9.116 19.824-19.824zm-65.4 53.835c-2.41 0-4.372-1.962-4.372-4.372s1.961-4.371 4.372-4.371 4.372 1.961 4.372 4.371-1.961 4.372-4.372 4.372zm45.576-8.727c-2.41 0-4.372-1.961-4.372-4.371s1.962-4.372 4.372-4.372 4.371 1.962 4.371 4.372-1.96 4.371-4.371 4.371z" fill="#80b4fb"/></g></svg>