<?xml version="1.0" encoding="iso-8859-1"?>
<!-- Generator: Adobe Illustrator 19.0.0, SVG Export Plug-In . SVG Version: 6.00 Build 0)  -->
<svg version="1.1" id="Capa_1" xmlns="http://www.w3.org/2000/svg" xmlns:xlink="http://www.w3.org/1999/xlink" x="0px" y="0px"
	 viewBox="0 0 512.001 512.001" style="enable-background:new 0 0 512.001 512.001;" xml:space="preserve">
<path style="fill:#FF9100;" d="M511.251,196.6c-1.8-5.4-6.599-9.3-12.001-10.199L340.901,163.3L269.5,18.4
	c-2.701-5.099-8.101-7.8-13.5-7.8c-5.399,0-10.8,2.701-13.5,7.8l-71.4,144.901l-158.35,23.1C7.348,187.3,2.549,191.2,0.749,196.6
	s-0.3,11.4,3.9,15.3l113.95,112.8L91.3,483.7c-0.901,5.7,1.5,11.4,6,14.7c4.799,3.6,10.8,3.9,15.899,1.201l142.8-75l142.8,75
	c2.401,1.199,4.799,1.8,7.2,1.8c2.999,0,6-0.901,8.699-3.001c4.501-3.3,6.901-9,6-14.7l-27.299-159l113.95-112.8
	C511.551,208,513.051,201.999,511.251,196.6z"/>
<path style="fill:#FF7816;" d="M507.351,211.9l-113.95,112.8l27.299,159c0.901,5.7-1.5,11.4-6,14.7
	c-2.699,2.1-5.7,3.001-8.699,3.001c-2.401,0-4.799-0.601-7.2-1.8l-142.8-75V10.599c5.4,0,10.8,2.701,13.5,7.8l71.4,144.901
	l158.35,23.101c5.402,0.899,10.201,4.799,12.001,10.199S511.551,208,507.351,211.9z"/>
<path style="fill:#53433F;" d="M271,189.7v-16.5c0-8.401-6.599-15-15-15c-8.401,0-15,6.599-15,15v107.7
	c-4.799-1.5-9.6-2.699-15-2.699c-24.901,0-45,20.099-45,45c0,24.899,20.099,45,45,45c11.7,0,22.2-4.501,30-11.7
	c9.3-8.101,15-20.099,15-33.3V220.9c17.401,6,30,22.8,30,42.301v30c0,8.399,6.599,15,15,15s15-6.601,15-15v-30
	C331,226.9,305.2,196.6,271,189.7z"/>
<path style="fill:#3E322E;" d="M331,263.201v30c0,8.399-6.599,15-15,15s-15-6.601-15-15v-30c0-19.501-12.599-36.301-30-42.301
	v102.301c0,13.2-5.7,25.199-15,33.3v-198.3c8.401,0,15,6.599,15,15v16.5C305.2,196.6,331,226.9,331,263.201z"/>
<g>
</g>
<g>
</g>
<g>
</g>
<g>
</g>
<g>
</g>
<g>
</g>
<g>
</g>
<g>
</g>
<g>
</g>
<g>
</g>
<g>
</g>
<g>
</g>
<g>
</g>
<g>
</g>
<g>
</g>
</svg>
